# xmcd
#
# Track frame offsets:
#	150
#	11259
#	28763
#	39700
#	53135
#	68903
#	81344
#	96589
#	110933
#	119303
#	130877
#
# Disc length: 1887 seconds
#
# Revision: 0
# Processed by: cddbd v1.5.2PL0 Copyright (c) Steve Scherf et al.
# Submitted via: EasyCDDAExtractor 4.6.9.1
#
DISCID=9b075d0b
DTITLE=Jan Howard - For God And Country
DYEAR=1970
DGENRE=Country
TTITLE0=The Twenty Third Psalm
TTITLE1=How Great Thou Art
TTITLE2=The Night Watch
TTITLE3=The Old Rugged Cross
TTITLE4=Pledge Of Allegiance
TTITLE5=The Lord's Prayer
TTITLE6=I Am (Background Music Onward Christain Soldiers)
TTITLE7=Where No One Stands Alone
TTITLE8=God Bless America
TTITLE9=God Bless America Again
TTITLE10=I Believe 
EXTD=
EXTT0=
EXTT1=
EXTT2=
EXTT3=
EXTT4=
EXTT5=
EXTT6=
EXTT7=
EXTT8=
EXTT9=
EXTT10=
PLAYORDER=
